<mxfile host="app.diagrams.net" modified="2021-10-06T14:44:23.598Z" agent="5.0 (Windows NT 10.0; Win64; x64) AppleWebKit/537.36 (KHTML, like Gecko) Chrome/94.0.4606.61 Safari/537.36 Edg/94.0.992.31" etag="Eh4zignsDm92wTJQLhLn" version="15.4.3" type="github">
  <diagram id="EHqSk1VED5PsXIvlIXF3" name="Page-1">
    <mxGraphModel dx="1058" dy="1369" grid="1" gridSize="10" guides="1" tooltips="1" connect="1" arrows="1" fold="1" page="0" pageScale="1" pageWidth="827" pageHeight="1169" background="#182E3E" math="0" shadow="0">
      <root>
        <mxCell id="0" />
        <mxCell id="1" parent="0" />
        <mxCell id="4wQbj9723WP38MKTBC8T-1" value="Программа" style="rounded=0;whiteSpace=wrap;html=1;sketch=0;fontColor=#1A1A1A;strokeColor=#FFFFFF;fillColor=#EEEEEE;" vertex="1" parent="1">
          <mxGeometry x="-360" y="-440" width="90" height="30" as="geometry" />
        </mxCell>
        <mxCell id="4wQbj9723WP38MKTBC8T-14" style="edgeStyle=none;rounded=1;sketch=0;orthogonalLoop=1;jettySize=auto;html=1;fontColor=#FFFFFF;strokeColor=#FFFFFF;entryX=0;entryY=0.5;entryDx=0;entryDy=0;" edge="1" parent="1" target="4wQbj9723WP38MKTBC8T-84">
          <mxGeometry relative="1" as="geometry">
            <mxPoint x="-180" y="-395" as="targetPoint" />
            <mxPoint x="-220" y="-360" as="sourcePoint" />
            <Array as="points">
              <mxPoint x="-220" y="-395" />
            </Array>
          </mxGeometry>
        </mxCell>
        <mxCell id="4wQbj9723WP38MKTBC8T-2" value="Описание" style="rounded=0;whiteSpace=wrap;html=1;sketch=0;fontColor=#1A1A1A;strokeColor=#FFFFFF;fillColor=#EEEEEE;" vertex="1" parent="1">
          <mxGeometry x="-80" y="-410" width="90" height="30" as="geometry" />
        </mxCell>
        <mxCell id="4wQbj9723WP38MKTBC8T-11" style="edgeStyle=orthogonalEdgeStyle;curved=0;rounded=1;sketch=0;orthogonalLoop=1;jettySize=auto;html=1;fontColor=#FFFFFF;strokeColor=#FFFFFF;" edge="1" parent="1">
          <mxGeometry relative="1" as="geometry">
            <mxPoint x="60" y="-357.75" as="targetPoint" />
            <mxPoint x="-270" y="-358" as="sourcePoint" />
            <Array as="points">
              <mxPoint x="-20" y="-358" />
              <mxPoint x="-20" y="-358" />
            </Array>
          </mxGeometry>
        </mxCell>
        <mxCell id="4wQbj9723WP38MKTBC8T-13" style="edgeStyle=orthogonalEdgeStyle;curved=0;rounded=1;sketch=0;orthogonalLoop=1;jettySize=auto;html=1;fontColor=#FFFFFF;strokeColor=#FFFFFF;exitX=1;exitY=0.5;exitDx=0;exitDy=0;" edge="1" parent="1" source="4wQbj9723WP38MKTBC8T-2">
          <mxGeometry relative="1" as="geometry">
            <mxPoint x="30" y="-360" as="targetPoint" />
            <mxPoint x="50" y="-390" as="sourcePoint" />
            <Array as="points">
              <mxPoint x="30" y="-395" />
            </Array>
          </mxGeometry>
        </mxCell>
        <mxCell id="4wQbj9723WP38MKTBC8T-15" value="Список описаний" style="rounded=0;whiteSpace=wrap;html=1;sketch=0;fontColor=#1A1A1A;strokeColor=#FFFFFF;fillColor=#EEEEEE;" vertex="1" parent="1">
          <mxGeometry x="-360" y="-320" width="130" height="30" as="geometry" />
        </mxCell>
        <mxCell id="4wQbj9723WP38MKTBC8T-20" value="Описание в функции" style="rounded=0;whiteSpace=wrap;html=1;sketch=0;fontColor=#1A1A1A;strokeColor=#FFFFFF;fillColor=#EEEEEE;" vertex="1" parent="1">
          <mxGeometry x="-360" y="-160" width="130" height="30" as="geometry" />
        </mxCell>
        <mxCell id="4wQbj9723WP38MKTBC8T-106" style="edgeStyle=none;rounded=1;sketch=0;orthogonalLoop=1;jettySize=auto;html=1;fontColor=#FFFFFF;strokeColor=#FFFFFF;" edge="1" parent="1" source="4wQbj9723WP38MKTBC8T-22">
          <mxGeometry relative="1" as="geometry">
            <mxPoint y="-60" as="targetPoint" />
            <Array as="points">
              <mxPoint y="-20" />
            </Array>
          </mxGeometry>
        </mxCell>
        <mxCell id="4wQbj9723WP38MKTBC8T-22" value="Данные" style="rounded=0;whiteSpace=wrap;html=1;sketch=0;fontColor=#1A1A1A;strokeColor=#FFFFFF;fillColor=#EEEEEE;" vertex="1" parent="1">
          <mxGeometry x="-160" y="-35" width="110" height="30" as="geometry" />
        </mxCell>
        <mxCell id="4wQbj9723WP38MKTBC8T-23" style="edgeStyle=orthogonalEdgeStyle;curved=0;rounded=1;sketch=0;orthogonalLoop=1;jettySize=auto;html=1;fontColor=#FFFFFF;strokeColor=#FFFFFF;" edge="1" parent="1">
          <mxGeometry relative="1" as="geometry">
            <mxPoint x="70" y="-59.75" as="targetPoint" />
            <mxPoint x="-260" y="-60" as="sourcePoint" />
            <Array as="points">
              <mxPoint x="-180" y="-60" />
              <mxPoint x="-180" y="-60" />
            </Array>
          </mxGeometry>
        </mxCell>
        <mxCell id="4wQbj9723WP38MKTBC8T-104" style="edgeStyle=none;rounded=1;sketch=0;orthogonalLoop=1;jettySize=auto;html=1;entryX=0;entryY=0.5;entryDx=0;entryDy=0;fontColor=#FFFFFF;strokeColor=#FFFFFF;" edge="1" parent="1" target="4wQbj9723WP38MKTBC8T-22">
          <mxGeometry relative="1" as="geometry">
            <mxPoint x="-230" y="-60" as="sourcePoint" />
            <Array as="points">
              <mxPoint x="-230" y="-20" />
            </Array>
          </mxGeometry>
        </mxCell>
        <mxCell id="4wQbj9723WP38MKTBC8T-26" value="Оператор" style="rounded=0;whiteSpace=wrap;html=1;sketch=0;fontColor=#1A1A1A;strokeColor=#FFFFFF;fillColor=#EEEEEE;" vertex="1" parent="1">
          <mxGeometry x="-160" y="-80" width="110" height="30" as="geometry" />
        </mxCell>
        <mxCell id="4wQbj9723WP38MKTBC8T-103" style="edgeStyle=none;rounded=1;sketch=0;orthogonalLoop=1;jettySize=auto;html=1;fontColor=#FFFFFF;strokeColor=#FFFFFF;entryX=0;entryY=0.5;entryDx=0;entryDy=0;" edge="1" parent="1" target="4wQbj9723WP38MKTBC8T-29">
          <mxGeometry relative="1" as="geometry">
            <mxPoint x="-230" y="-105" as="targetPoint" />
            <mxPoint x="-230" y="-60" as="sourcePoint" />
            <Array as="points">
              <mxPoint x="-230" y="-105" />
            </Array>
          </mxGeometry>
        </mxCell>
        <mxCell id="4wQbj9723WP38MKTBC8T-105" style="edgeStyle=none;rounded=1;sketch=0;orthogonalLoop=1;jettySize=auto;html=1;fontColor=#FFFFFF;strokeColor=#FFFFFF;" edge="1" parent="1" source="4wQbj9723WP38MKTBC8T-29">
          <mxGeometry relative="1" as="geometry">
            <mxPoint y="-60" as="targetPoint" />
            <Array as="points">
              <mxPoint y="-105" />
            </Array>
          </mxGeometry>
        </mxCell>
        <mxCell id="4wQbj9723WP38MKTBC8T-29" value="Класс" style="rounded=0;whiteSpace=wrap;html=1;sketch=0;fontColor=#1A1A1A;strokeColor=#FFFFFF;fillColor=#EEEEEE;" vertex="1" parent="1">
          <mxGeometry x="-160" y="-120" width="110" height="30" as="geometry" />
        </mxCell>
        <mxCell id="4wQbj9723WP38MKTBC8T-31" value="Описание" style="rounded=0;whiteSpace=wrap;html=1;sketch=0;fontColor=#1A1A1A;strokeColor=#FFFFFF;fillColor=#EEEEEE;" vertex="1" parent="1">
          <mxGeometry x="-360" y="40" width="130" height="30" as="geometry" />
        </mxCell>
        <mxCell id="4wQbj9723WP38MKTBC8T-42" style="edgeStyle=orthogonalEdgeStyle;curved=0;rounded=1;sketch=0;orthogonalLoop=1;jettySize=auto;html=1;fontColor=#FFFFFF;strokeColor=#FFFFFF;startArrow=none;" edge="1" parent="1" source="4wQbj9723WP38MKTBC8T-53">
          <mxGeometry relative="1" as="geometry">
            <mxPoint x="120" y="320.25" as="targetPoint" />
            <mxPoint x="-210" y="320" as="sourcePoint" />
            <Array as="points">
              <mxPoint x="40" y="320" />
              <mxPoint x="40" y="320" />
            </Array>
          </mxGeometry>
        </mxCell>
        <mxCell id="4wQbj9723WP38MKTBC8T-44" value="Функция" style="rounded=0;whiteSpace=wrap;html=1;sketch=0;fontColor=#1A1A1A;strokeColor=#FFFFFF;fillColor=#EEEEEE;" vertex="1" parent="1">
          <mxGeometry x="-360" y="240" width="130" height="30" as="geometry" />
        </mxCell>
        <mxCell id="4wQbj9723WP38MKTBC8T-56" style="edgeStyle=none;rounded=1;sketch=0;orthogonalLoop=1;jettySize=auto;html=1;exitX=1;exitY=0.5;exitDx=0;exitDy=0;entryX=0;entryY=0.5;entryDx=0;entryDy=0;fontColor=#FFFFFF;strokeColor=#FFFFFF;" edge="1" parent="1" source="4wQbj9723WP38MKTBC8T-48" target="4wQbj9723WP38MKTBC8T-50">
          <mxGeometry relative="1" as="geometry" />
        </mxCell>
        <mxCell id="4wQbj9723WP38MKTBC8T-48" value="Тип" style="rounded=0;whiteSpace=wrap;html=1;sketch=0;fontColor=#1A1A1A;strokeColor=#FFFFFF;fillColor=#EEEEEE;" vertex="1" parent="1">
          <mxGeometry x="-270" y="300" width="40" height="30" as="geometry" />
        </mxCell>
        <mxCell id="4wQbj9723WP38MKTBC8T-49" value="" style="edgeStyle=orthogonalEdgeStyle;curved=0;rounded=1;sketch=0;orthogonalLoop=1;jettySize=auto;html=1;fontColor=#FFFFFF;strokeColor=#FFFFFF;endArrow=none;" edge="1" parent="1" target="4wQbj9723WP38MKTBC8T-48">
          <mxGeometry relative="1" as="geometry">
            <mxPoint x="20" y="320.25" as="targetPoint" />
            <mxPoint x="-290" y="315" as="sourcePoint" />
            <Array as="points" />
          </mxGeometry>
        </mxCell>
        <mxCell id="4wQbj9723WP38MKTBC8T-57" style="edgeStyle=none;rounded=1;sketch=0;orthogonalLoop=1;jettySize=auto;html=1;entryX=0;entryY=0.5;entryDx=0;entryDy=0;fontColor=#FFFFFF;strokeColor=#FFFFFF;startArrow=none;" edge="1" parent="1" source="4wQbj9723WP38MKTBC8T-58" target="4wQbj9723WP38MKTBC8T-53">
          <mxGeometry relative="1" as="geometry" />
        </mxCell>
        <mxCell id="4wQbj9723WP38MKTBC8T-50" value="Имя функции" style="rounded=0;whiteSpace=wrap;html=1;sketch=0;fontColor=#1A1A1A;strokeColor=#FFFFFF;fillColor=#EEEEEE;" vertex="1" parent="1">
          <mxGeometry x="-200" y="300" width="80" height="30" as="geometry" />
        </mxCell>
        <mxCell id="4wQbj9723WP38MKTBC8T-53" value="Блок" style="rounded=0;whiteSpace=wrap;html=1;sketch=0;fontColor=#1A1A1A;strokeColor=#FFFFFF;fillColor=#EEEEEE;" vertex="1" parent="1">
          <mxGeometry x="20" y="300" width="40" height="30" as="geometry" />
        </mxCell>
        <mxCell id="4wQbj9723WP38MKTBC8T-58" value="(" style="ellipse;whiteSpace=wrap;html=1;aspect=fixed;rounded=0;sketch=0;fontColor=#1A1A1A;strokeColor=#FFFFFF;fillColor=#EEEEEE;" vertex="1" parent="1">
          <mxGeometry x="-90" y="300" width="30" height="30" as="geometry" />
        </mxCell>
        <mxCell id="4wQbj9723WP38MKTBC8T-59" value="" style="edgeStyle=none;rounded=1;sketch=0;orthogonalLoop=1;jettySize=auto;html=1;entryX=0;entryY=0.5;entryDx=0;entryDy=0;fontColor=#FFFFFF;strokeColor=#FFFFFF;endArrow=none;" edge="1" parent="1" source="4wQbj9723WP38MKTBC8T-50" target="4wQbj9723WP38MKTBC8T-58">
          <mxGeometry relative="1" as="geometry">
            <mxPoint x="-130" y="315" as="sourcePoint" />
            <mxPoint x="-10" y="315" as="targetPoint" />
          </mxGeometry>
        </mxCell>
        <mxCell id="4wQbj9723WP38MKTBC8T-60" value=")" style="ellipse;whiteSpace=wrap;html=1;aspect=fixed;rounded=0;sketch=0;fontColor=#1A1A1A;strokeColor=#FFFFFF;fillColor=#EEEEEE;" vertex="1" parent="1">
          <mxGeometry x="-40" y="300" width="30" height="30" as="geometry" />
        </mxCell>
        <mxCell id="4wQbj9723WP38MKTBC8T-61" value="Имя функции" style="rounded=0;whiteSpace=wrap;html=1;sketch=0;fontColor=#1A1A1A;strokeColor=#FFFFFF;fillColor=#EEEEEE;" vertex="1" parent="1">
          <mxGeometry x="-360" y="360" width="130" height="30" as="geometry" />
        </mxCell>
        <mxCell id="4wQbj9723WP38MKTBC8T-69" style="edgeStyle=none;rounded=1;sketch=0;orthogonalLoop=1;jettySize=auto;html=1;fontColor=#FFFFFF;strokeColor=#FFFFFF;" edge="1" parent="1" source="4wQbj9723WP38MKTBC8T-66">
          <mxGeometry relative="1" as="geometry">
            <mxPoint x="-150" y="460" as="targetPoint" />
            <Array as="points">
              <mxPoint x="-150" y="425" />
            </Array>
          </mxGeometry>
        </mxCell>
        <mxCell id="4wQbj9723WP38MKTBC8T-66" value="main" style="rounded=0;whiteSpace=wrap;html=1;sketch=0;fontColor=#1A1A1A;strokeColor=#FFFFFF;fillColor=#EEEEEE;" vertex="1" parent="1">
          <mxGeometry x="-230" y="410" width="45" height="30" as="geometry" />
        </mxCell>
        <mxCell id="4wQbj9723WP38MKTBC8T-68" style="edgeStyle=none;rounded=1;sketch=0;orthogonalLoop=1;jettySize=auto;html=1;fontColor=#FFFFFF;strokeColor=#FFFFFF;" edge="1" parent="1" source="4wQbj9723WP38MKTBC8T-67">
          <mxGeometry relative="1" as="geometry">
            <mxPoint x="-110" y="460" as="targetPoint" />
            <Array as="points">
              <mxPoint x="-150" y="485" />
              <mxPoint x="-150" y="460" />
            </Array>
          </mxGeometry>
        </mxCell>
        <mxCell id="4wQbj9723WP38MKTBC8T-67" value="имя" style="rounded=0;whiteSpace=wrap;html=1;sketch=0;fontColor=#1A1A1A;strokeColor=#FFFFFF;fillColor=#EEEEEE;" vertex="1" parent="1">
          <mxGeometry x="-230" y="470" width="45" height="30" as="geometry" />
        </mxCell>
        <mxCell id="4wQbj9723WP38MKTBC8T-70" value="" style="edgeStyle=orthogonalEdgeStyle;curved=0;rounded=1;sketch=0;orthogonalLoop=1;jettySize=auto;html=1;fontColor=#FFFFFF;strokeColor=#FFFFFF;endArrow=none;entryX=0;entryY=0.25;entryDx=0;entryDy=0;" edge="1" parent="1" target="4wQbj9723WP38MKTBC8T-67">
          <mxGeometry relative="1" as="geometry">
            <mxPoint x="-254" y="450" as="targetPoint" />
            <mxPoint x="-290" y="455" as="sourcePoint" />
            <Array as="points">
              <mxPoint x="-254" y="455" />
              <mxPoint x="-254" y="478" />
            </Array>
          </mxGeometry>
        </mxCell>
        <mxCell id="4wQbj9723WP38MKTBC8T-71" value="" style="edgeStyle=orthogonalEdgeStyle;curved=0;rounded=1;sketch=0;orthogonalLoop=1;jettySize=auto;html=1;fontColor=#FFFFFF;strokeColor=#FFFFFF;endArrow=none;entryX=0;entryY=0.5;entryDx=0;entryDy=0;" edge="1" parent="1" target="4wQbj9723WP38MKTBC8T-66">
          <mxGeometry relative="1" as="geometry">
            <mxPoint x="-230" y="462.5" as="targetPoint" />
            <mxPoint x="-254" y="460" as="sourcePoint" />
            <Array as="points">
              <mxPoint x="-254" y="425" />
            </Array>
          </mxGeometry>
        </mxCell>
        <mxCell id="4wQbj9723WP38MKTBC8T-72" value="Данные" style="rounded=0;whiteSpace=wrap;html=1;sketch=0;fontColor=#1A1A1A;strokeColor=#FFFFFF;fillColor=#EEEEEE;" vertex="1" parent="1">
          <mxGeometry x="-360" y="520" width="130" height="30" as="geometry" />
        </mxCell>
        <mxCell id="4wQbj9723WP38MKTBC8T-75" style="edgeStyle=none;rounded=1;sketch=0;orthogonalLoop=1;jettySize=auto;html=1;fontColor=#FFFFFF;strokeColor=#FFFFFF;" edge="1" parent="1" source="4wQbj9723WP38MKTBC8T-76">
          <mxGeometry relative="1" as="geometry">
            <mxPoint x="-30" y="595" as="targetPoint" />
            <Array as="points">
              <mxPoint x="-130" y="595" />
            </Array>
          </mxGeometry>
        </mxCell>
        <mxCell id="4wQbj9723WP38MKTBC8T-76" value="Список переменных" style="rounded=0;whiteSpace=wrap;html=1;sketch=0;fontColor=#1A1A1A;strokeColor=#FFFFFF;fillColor=#EEEEEE;" vertex="1" parent="1">
          <mxGeometry x="-170" y="580" width="95" height="30" as="geometry" />
        </mxCell>
        <mxCell id="4wQbj9723WP38MKTBC8T-77" value="" style="edgeStyle=orthogonalEdgeStyle;curved=0;rounded=1;sketch=0;orthogonalLoop=1;jettySize=auto;html=1;fontColor=#FFFFFF;strokeColor=#FFFFFF;endArrow=none;" edge="1" parent="1">
          <mxGeometry relative="1" as="geometry">
            <mxPoint x="-170" y="595" as="targetPoint" />
            <mxPoint x="-290" y="595" as="sourcePoint" />
            <Array as="points">
              <mxPoint x="-170" y="595" />
            </Array>
          </mxGeometry>
        </mxCell>
        <mxCell id="4wQbj9723WP38MKTBC8T-79" value="Программа" style="rounded=0;whiteSpace=wrap;html=1;sketch=0;fontColor=#1A1A1A;strokeColor=#FFFFFF;fillColor=#EEEEEE;" vertex="1" parent="1">
          <mxGeometry x="400" y="-440" width="90" height="30" as="geometry" />
        </mxCell>
        <mxCell id="4wQbj9723WP38MKTBC8T-80" style="edgeStyle=none;rounded=1;sketch=0;orthogonalLoop=1;jettySize=auto;html=1;fontColor=#FFFFFF;strokeColor=#FFFFFF;" edge="1" parent="1" source="4wQbj9723WP38MKTBC8T-81">
          <mxGeometry relative="1" as="geometry">
            <mxPoint x="550" y="-358" as="targetPoint" />
            <Array as="points">
              <mxPoint x="550" y="-395" />
            </Array>
          </mxGeometry>
        </mxCell>
        <mxCell id="4wQbj9723WP38MKTBC8T-81" value="Описание" style="rounded=0;whiteSpace=wrap;html=1;sketch=0;fontColor=#1A1A1A;strokeColor=#FFFFFF;fillColor=#EEEEEE;" vertex="1" parent="1">
          <mxGeometry x="610" y="-410" width="90" height="30" as="geometry" />
        </mxCell>
        <mxCell id="4wQbj9723WP38MKTBC8T-82" style="edgeStyle=orthogonalEdgeStyle;curved=0;rounded=1;sketch=0;orthogonalLoop=1;jettySize=auto;html=1;fontColor=#FFFFFF;strokeColor=#FFFFFF;" edge="1" parent="1">
          <mxGeometry relative="1" as="geometry">
            <mxPoint x="820" y="-357.75" as="targetPoint" />
            <mxPoint x="490" y="-358" as="sourcePoint" />
            <Array as="points">
              <mxPoint x="740" y="-358" />
              <mxPoint x="740" y="-358" />
            </Array>
          </mxGeometry>
        </mxCell>
        <mxCell id="4wQbj9723WP38MKTBC8T-83" style="edgeStyle=orthogonalEdgeStyle;curved=0;rounded=1;sketch=0;orthogonalLoop=1;jettySize=auto;html=1;fontColor=#FFFFFF;strokeColor=#FFFFFF;entryX=1;entryY=0.5;entryDx=0;entryDy=0;" edge="1" parent="1" target="4wQbj9723WP38MKTBC8T-81">
          <mxGeometry relative="1" as="geometry">
            <mxPoint x="855" y="-370" as="targetPoint" />
            <mxPoint x="750" y="-358" as="sourcePoint" />
            <Array as="points">
              <mxPoint x="750" y="-395" />
            </Array>
          </mxGeometry>
        </mxCell>
        <mxCell id="4wQbj9723WP38MKTBC8T-85" style="edgeStyle=none;rounded=1;sketch=0;orthogonalLoop=1;jettySize=auto;html=1;entryX=0;entryY=0.5;entryDx=0;entryDy=0;fontColor=#FFFFFF;strokeColor=#FFFFFF;" edge="1" parent="1" source="4wQbj9723WP38MKTBC8T-84" target="4wQbj9723WP38MKTBC8T-2">
          <mxGeometry relative="1" as="geometry" />
        </mxCell>
        <mxCell id="4wQbj9723WP38MKTBC8T-84" value="Программа" style="rounded=0;whiteSpace=wrap;html=1;sketch=0;fontColor=#1A1A1A;strokeColor=#FFFFFF;fillColor=#EEEEEE;" vertex="1" parent="1">
          <mxGeometry x="-200" y="-410" width="90" height="30" as="geometry" />
        </mxCell>
        <mxCell id="4wQbj9723WP38MKTBC8T-86" value="Список описаний" style="rounded=0;whiteSpace=wrap;html=1;sketch=0;fontColor=#1A1A1A;strokeColor=#FFFFFF;fillColor=#EEEEEE;" vertex="1" parent="1">
          <mxGeometry x="400" y="-320" width="130" height="30" as="geometry" />
        </mxCell>
        <mxCell id="4wQbj9723WP38MKTBC8T-87" style="edgeStyle=none;rounded=1;sketch=0;orthogonalLoop=1;jettySize=auto;html=1;fontColor=#FFFFFF;strokeColor=#FFFFFF;" edge="1" parent="1" source="4wQbj9723WP38MKTBC8T-88">
          <mxGeometry relative="1" as="geometry">
            <mxPoint x="570" y="-220" as="targetPoint" />
            <Array as="points">
              <mxPoint x="570" y="-275" />
            </Array>
          </mxGeometry>
        </mxCell>
        <mxCell id="4wQbj9723WP38MKTBC8T-88" value="Описание в функции" style="rounded=0;whiteSpace=wrap;html=1;sketch=0;fontColor=#1A1A1A;strokeColor=#FFFFFF;fillColor=#EEEEEE;" vertex="1" parent="1">
          <mxGeometry x="610" y="-290" width="110" height="30" as="geometry" />
        </mxCell>
        <mxCell id="4wQbj9723WP38MKTBC8T-89" style="edgeStyle=orthogonalEdgeStyle;curved=0;rounded=1;sketch=0;orthogonalLoop=1;jettySize=auto;html=1;fontColor=#FFFFFF;strokeColor=#FFFFFF;" edge="1" parent="1">
          <mxGeometry relative="1" as="geometry">
            <mxPoint x="840" y="-218.75" as="targetPoint" />
            <mxPoint x="510" y="-219" as="sourcePoint" />
            <Array as="points">
              <mxPoint x="760" y="-219" />
              <mxPoint x="760" y="-219" />
            </Array>
          </mxGeometry>
        </mxCell>
        <mxCell id="4wQbj9723WP38MKTBC8T-90" style="edgeStyle=orthogonalEdgeStyle;curved=0;rounded=1;sketch=0;orthogonalLoop=1;jettySize=auto;html=1;fontColor=#FFFFFF;strokeColor=#FFFFFF;entryX=1;entryY=0.5;entryDx=0;entryDy=0;" edge="1" parent="1" target="4wQbj9723WP38MKTBC8T-88">
          <mxGeometry relative="1" as="geometry">
            <mxPoint x="875" y="-250" as="targetPoint" />
            <mxPoint x="770" y="-220" as="sourcePoint" />
            <Array as="points">
              <mxPoint x="770" y="-275" />
            </Array>
          </mxGeometry>
        </mxCell>
        <mxCell id="4wQbj9723WP38MKTBC8T-97" style="edgeStyle=none;rounded=1;sketch=0;orthogonalLoop=1;jettySize=auto;html=1;fontColor=#FFFFFF;strokeColor=#FFFFFF;entryX=0;entryY=0.5;entryDx=0;entryDy=0;" edge="1" parent="1" target="4wQbj9723WP38MKTBC8T-102">
          <mxGeometry relative="1" as="geometry">
            <mxPoint x="-190" y="-255" as="targetPoint" />
            <mxPoint x="-230" y="-220" as="sourcePoint" />
            <Array as="points">
              <mxPoint x="-230" y="-255" />
            </Array>
          </mxGeometry>
        </mxCell>
        <mxCell id="4wQbj9723WP38MKTBC8T-98" value="Описание в функции" style="rounded=0;whiteSpace=wrap;html=1;sketch=0;fontColor=#1A1A1A;strokeColor=#FFFFFF;fillColor=#EEEEEE;" vertex="1" parent="1">
          <mxGeometry x="-90" y="-270" width="90" height="30" as="geometry" />
        </mxCell>
        <mxCell id="4wQbj9723WP38MKTBC8T-99" style="edgeStyle=orthogonalEdgeStyle;curved=0;rounded=1;sketch=0;orthogonalLoop=1;jettySize=auto;html=1;fontColor=#FFFFFF;strokeColor=#FFFFFF;" edge="1" parent="1">
          <mxGeometry relative="1" as="geometry">
            <mxPoint x="50" y="-217.75" as="targetPoint" />
            <mxPoint x="-280" y="-218" as="sourcePoint" />
            <Array as="points">
              <mxPoint x="-30" y="-218" />
              <mxPoint x="-30" y="-218" />
            </Array>
          </mxGeometry>
        </mxCell>
        <mxCell id="4wQbj9723WP38MKTBC8T-100" style="edgeStyle=orthogonalEdgeStyle;curved=0;rounded=1;sketch=0;orthogonalLoop=1;jettySize=auto;html=1;fontColor=#FFFFFF;strokeColor=#FFFFFF;exitX=1;exitY=0.5;exitDx=0;exitDy=0;" edge="1" parent="1" source="4wQbj9723WP38MKTBC8T-98">
          <mxGeometry relative="1" as="geometry">
            <mxPoint x="20" y="-220" as="targetPoint" />
            <mxPoint x="40" y="-250" as="sourcePoint" />
            <Array as="points">
              <mxPoint x="20" y="-255" />
            </Array>
          </mxGeometry>
        </mxCell>
        <mxCell id="4wQbj9723WP38MKTBC8T-101" style="edgeStyle=none;rounded=1;sketch=0;orthogonalLoop=1;jettySize=auto;html=1;entryX=0;entryY=0.5;entryDx=0;entryDy=0;fontColor=#FFFFFF;strokeColor=#FFFFFF;" edge="1" parent="1" source="4wQbj9723WP38MKTBC8T-102" target="4wQbj9723WP38MKTBC8T-98">
          <mxGeometry relative="1" as="geometry" />
        </mxCell>
        <mxCell id="4wQbj9723WP38MKTBC8T-102" value="Список описаний" style="rounded=0;whiteSpace=wrap;html=1;sketch=0;fontColor=#1A1A1A;strokeColor=#FFFFFF;fillColor=#EEEEEE;" vertex="1" parent="1">
          <mxGeometry x="-210" y="-270" width="90" height="30" as="geometry" />
        </mxCell>
        <mxCell id="4wQbj9723WP38MKTBC8T-108" style="edgeStyle=none;rounded=1;sketch=0;orthogonalLoop=1;jettySize=auto;html=1;fontColor=#FFFFFF;strokeColor=#FFFFFF;" edge="1" parent="1" source="4wQbj9723WP38MKTBC8T-109">
          <mxGeometry relative="1" as="geometry">
            <mxPoint y="140" as="targetPoint" />
            <Array as="points">
              <mxPoint y="180" />
            </Array>
          </mxGeometry>
        </mxCell>
        <mxCell id="4wQbj9723WP38MKTBC8T-109" value="Данные" style="rounded=0;whiteSpace=wrap;html=1;sketch=0;fontColor=#1A1A1A;strokeColor=#FFFFFF;fillColor=#EEEEEE;" vertex="1" parent="1">
          <mxGeometry x="-160" y="165" width="110" height="30" as="geometry" />
        </mxCell>
        <mxCell id="4wQbj9723WP38MKTBC8T-110" style="edgeStyle=orthogonalEdgeStyle;curved=0;rounded=1;sketch=0;orthogonalLoop=1;jettySize=auto;html=1;fontColor=#FFFFFF;strokeColor=#FFFFFF;" edge="1" parent="1">
          <mxGeometry relative="1" as="geometry">
            <mxPoint x="70" y="140.25" as="targetPoint" />
            <mxPoint x="-260" y="140" as="sourcePoint" />
            <Array as="points">
              <mxPoint x="-180" y="140" />
              <mxPoint x="-180" y="140" />
            </Array>
          </mxGeometry>
        </mxCell>
        <mxCell id="4wQbj9723WP38MKTBC8T-111" style="edgeStyle=none;rounded=1;sketch=0;orthogonalLoop=1;jettySize=auto;html=1;entryX=0;entryY=0.5;entryDx=0;entryDy=0;fontColor=#FFFFFF;strokeColor=#FFFFFF;" edge="1" parent="1" target="4wQbj9723WP38MKTBC8T-109">
          <mxGeometry relative="1" as="geometry">
            <mxPoint x="-230" y="140" as="sourcePoint" />
            <Array as="points">
              <mxPoint x="-230" y="180" />
            </Array>
          </mxGeometry>
        </mxCell>
        <mxCell id="4wQbj9723WP38MKTBC8T-112" value="Функция" style="rounded=0;whiteSpace=wrap;html=1;sketch=0;fontColor=#1A1A1A;strokeColor=#FFFFFF;fillColor=#EEEEEE;" vertex="1" parent="1">
          <mxGeometry x="-160" y="120" width="110" height="30" as="geometry" />
        </mxCell>
        <mxCell id="4wQbj9723WP38MKTBC8T-113" style="edgeStyle=none;rounded=1;sketch=0;orthogonalLoop=1;jettySize=auto;html=1;fontColor=#FFFFFF;strokeColor=#FFFFFF;entryX=0;entryY=0.5;entryDx=0;entryDy=0;" edge="1" parent="1" target="4wQbj9723WP38MKTBC8T-115">
          <mxGeometry relative="1" as="geometry">
            <mxPoint x="-230" y="95" as="targetPoint" />
            <mxPoint x="-230" y="140" as="sourcePoint" />
            <Array as="points">
              <mxPoint x="-230" y="95" />
            </Array>
          </mxGeometry>
        </mxCell>
        <mxCell id="4wQbj9723WP38MKTBC8T-114" style="edgeStyle=none;rounded=1;sketch=0;orthogonalLoop=1;jettySize=auto;html=1;fontColor=#FFFFFF;strokeColor=#FFFFFF;" edge="1" parent="1" source="4wQbj9723WP38MKTBC8T-115">
          <mxGeometry relative="1" as="geometry">
            <mxPoint y="140" as="targetPoint" />
            <Array as="points">
              <mxPoint y="95" />
            </Array>
          </mxGeometry>
        </mxCell>
        <mxCell id="4wQbj9723WP38MKTBC8T-115" value="Класс" style="rounded=0;whiteSpace=wrap;html=1;sketch=0;fontColor=#1A1A1A;strokeColor=#FFFFFF;fillColor=#EEEEEE;" vertex="1" parent="1">
          <mxGeometry x="-160" y="80" width="110" height="30" as="geometry" />
        </mxCell>
        <mxCell id="4wQbj9723WP38MKTBC8T-116" value="Тип" style="rounded=0;whiteSpace=wrap;html=1;sketch=0;fontColor=#1A1A1A;strokeColor=#FFFFFF;fillColor=#EEEEEE;" vertex="1" parent="1">
          <mxGeometry x="-250" y="580" width="40" height="30" as="geometry" />
        </mxCell>
        <mxCell id="4wQbj9723WP38MKTBC8T-117" value="Тип" style="rounded=0;whiteSpace=wrap;html=1;sketch=0;fontColor=#1A1A1A;strokeColor=#FFFFFF;fillColor=#EEEEEE;" vertex="1" parent="1">
          <mxGeometry x="-360" y="640" width="130" height="30" as="geometry" />
        </mxCell>
        <mxCell id="4wQbj9723WP38MKTBC8T-118" style="edgeStyle=none;rounded=1;sketch=0;orthogonalLoop=1;jettySize=auto;html=1;fontColor=#FFFFFF;strokeColor=#FFFFFF;exitX=1;exitY=0.5;exitDx=0;exitDy=0;" edge="1" parent="1" source="4wQbj9723WP38MKTBC8T-134">
          <mxGeometry relative="1" as="geometry">
            <mxPoint x="-40" y="740" as="targetPoint" />
            <Array as="points">
              <mxPoint x="-40" y="775" />
            </Array>
            <mxPoint x="-50" y="780" as="sourcePoint" />
          </mxGeometry>
        </mxCell>
        <mxCell id="4wQbj9723WP38MKTBC8T-120" style="edgeStyle=orthogonalEdgeStyle;curved=0;rounded=1;sketch=0;orthogonalLoop=1;jettySize=auto;html=1;fontColor=#FFFFFF;strokeColor=#FFFFFF;entryX=0;entryY=0.5;entryDx=0;entryDy=0;" edge="1" parent="1" target="4wQbj9723WP38MKTBC8T-130">
          <mxGeometry relative="1" as="geometry">
            <mxPoint x="20" y="744" as="targetPoint" />
            <mxPoint x="-260" y="739" as="sourcePoint" />
            <Array as="points">
              <mxPoint x="-260" y="739" />
            </Array>
          </mxGeometry>
        </mxCell>
        <mxCell id="4wQbj9723WP38MKTBC8T-121" style="edgeStyle=none;rounded=1;sketch=0;orthogonalLoop=1;jettySize=auto;html=1;fontColor=#FFFFFF;strokeColor=#FFFFFF;entryX=0;entryY=0.5;entryDx=0;entryDy=0;" edge="1" parent="1" target="4wQbj9723WP38MKTBC8T-133">
          <mxGeometry relative="1" as="geometry">
            <mxPoint x="-230" y="740" as="sourcePoint" />
            <Array as="points">
              <mxPoint x="-230" y="775" />
            </Array>
            <mxPoint x="-190" y="780" as="targetPoint" />
          </mxGeometry>
        </mxCell>
        <mxCell id="4wQbj9723WP38MKTBC8T-123" style="edgeStyle=none;rounded=1;sketch=0;orthogonalLoop=1;jettySize=auto;html=1;fontColor=#FFFFFF;strokeColor=#FFFFFF;" edge="1" parent="1">
          <mxGeometry relative="1" as="geometry">
            <mxPoint x="-190" y="695" as="targetPoint" />
            <mxPoint x="-230" y="740" as="sourcePoint" />
            <Array as="points">
              <mxPoint x="-230" y="695" />
            </Array>
          </mxGeometry>
        </mxCell>
        <mxCell id="4wQbj9723WP38MKTBC8T-124" style="edgeStyle=none;rounded=1;sketch=0;orthogonalLoop=1;jettySize=auto;html=1;fontColor=#FFFFFF;strokeColor=#FFFFFF;exitX=1;exitY=0.5;exitDx=0;exitDy=0;" edge="1" parent="1" source="4wQbj9723WP38MKTBC8T-128">
          <mxGeometry relative="1" as="geometry">
            <mxPoint x="-40" y="740" as="targetPoint" />
            <Array as="points">
              <mxPoint x="-40" y="695" />
            </Array>
            <mxPoint x="-50" y="695" as="sourcePoint" />
          </mxGeometry>
        </mxCell>
        <mxCell id="4wQbj9723WP38MKTBC8T-129" style="edgeStyle=none;rounded=1;sketch=0;orthogonalLoop=1;jettySize=auto;html=1;entryX=0;entryY=0.5;entryDx=0;entryDy=0;fontColor=#FFFFFF;strokeColor=#FFFFFF;" edge="1" parent="1" source="4wQbj9723WP38MKTBC8T-126" target="4wQbj9723WP38MKTBC8T-128">
          <mxGeometry relative="1" as="geometry" />
        </mxCell>
        <mxCell id="4wQbj9723WP38MKTBC8T-126" value="short" style="ellipse;whiteSpace=wrap;html=1;rounded=0;sketch=0;fontColor=#1A1A1A;strokeColor=#FFFFFF;fillColor=#EEEEEE;" vertex="1" parent="1">
          <mxGeometry x="-185" y="680" width="40" height="30" as="geometry" />
        </mxCell>
        <mxCell id="4wQbj9723WP38MKTBC8T-128" value="int" style="ellipse;whiteSpace=wrap;html=1;rounded=0;sketch=0;fontColor=#1A1A1A;strokeColor=#FFFFFF;fillColor=#EEEEEE;" vertex="1" parent="1">
          <mxGeometry x="-110" y="680" width="40" height="30" as="geometry" />
        </mxCell>
        <mxCell id="4wQbj9723WP38MKTBC8T-135" style="edgeStyle=none;rounded=1;sketch=0;orthogonalLoop=1;jettySize=auto;html=1;fontColor=#FFFFFF;strokeColor=#FFFFFF;" edge="1" parent="1" source="4wQbj9723WP38MKTBC8T-130">
          <mxGeometry relative="1" as="geometry">
            <mxPoint y="739" as="targetPoint" />
          </mxGeometry>
        </mxCell>
        <mxCell id="4wQbj9723WP38MKTBC8T-130" value="float" style="ellipse;whiteSpace=wrap;html=1;rounded=0;sketch=0;fontColor=#1A1A1A;strokeColor=#FFFFFF;fillColor=#EEEEEE;" vertex="1" parent="1">
          <mxGeometry x="-160" y="724" width="40" height="30" as="geometry" />
        </mxCell>
        <mxCell id="4wQbj9723WP38MKTBC8T-132" style="edgeStyle=none;rounded=1;sketch=0;orthogonalLoop=1;jettySize=auto;html=1;entryX=0;entryY=0.5;entryDx=0;entryDy=0;fontColor=#FFFFFF;strokeColor=#FFFFFF;" edge="1" parent="1" source="4wQbj9723WP38MKTBC8T-133" target="4wQbj9723WP38MKTBC8T-134">
          <mxGeometry relative="1" as="geometry" />
        </mxCell>
        <mxCell id="4wQbj9723WP38MKTBC8T-133" value="long" style="ellipse;whiteSpace=wrap;html=1;rounded=0;sketch=0;fontColor=#1A1A1A;strokeColor=#FFFFFF;fillColor=#EEEEEE;" vertex="1" parent="1">
          <mxGeometry x="-190" y="760" width="40" height="30" as="geometry" />
        </mxCell>
        <mxCell id="4wQbj9723WP38MKTBC8T-134" value="int" style="ellipse;whiteSpace=wrap;html=1;rounded=0;sketch=0;fontColor=#1A1A1A;strokeColor=#FFFFFF;fillColor=#EEEEEE;" vertex="1" parent="1">
          <mxGeometry x="-115" y="760" width="40" height="30" as="geometry" />
        </mxCell>
        <mxCell id="4wQbj9723WP38MKTBC8T-136" value="Список переменных" style="rounded=0;whiteSpace=wrap;html=1;sketch=0;fontColor=#1A1A1A;strokeColor=#FFFFFF;fillColor=#EEEEEE;" vertex="1" parent="1">
          <mxGeometry x="-360" y="800" width="130" height="30" as="geometry" />
        </mxCell>
        <mxCell id="4wQbj9723WP38MKTBC8T-137" style="edgeStyle=none;rounded=1;sketch=0;orthogonalLoop=1;jettySize=auto;html=1;fontColor=#FFFFFF;strokeColor=#FFFFFF;entryX=0;entryY=0.5;entryDx=0;entryDy=0;" edge="1" parent="1" target="4wQbj9723WP38MKTBC8T-142">
          <mxGeometry relative="1" as="geometry">
            <mxPoint x="-190" y="865" as="targetPoint" />
            <mxPoint x="-230" y="900" as="sourcePoint" />
            <Array as="points">
              <mxPoint x="-230" y="865" />
            </Array>
          </mxGeometry>
        </mxCell>
        <mxCell id="4wQbj9723WP38MKTBC8T-138" value="Переменная" style="rounded=0;whiteSpace=wrap;html=1;sketch=0;fontColor=#1A1A1A;strokeColor=#FFFFFF;fillColor=#EEEEEE;" vertex="1" parent="1">
          <mxGeometry x="-40" y="850" width="90" height="30" as="geometry" />
        </mxCell>
        <mxCell id="4wQbj9723WP38MKTBC8T-140" style="edgeStyle=orthogonalEdgeStyle;curved=0;rounded=1;sketch=0;orthogonalLoop=1;jettySize=auto;html=1;fontColor=#FFFFFF;strokeColor=#FFFFFF;exitX=1;exitY=0.5;exitDx=0;exitDy=0;" edge="1" parent="1" source="4wQbj9723WP38MKTBC8T-138">
          <mxGeometry relative="1" as="geometry">
            <mxPoint x="80" y="900" as="targetPoint" />
            <mxPoint x="40" y="870" as="sourcePoint" />
            <Array as="points">
              <mxPoint x="80" y="865" />
            </Array>
          </mxGeometry>
        </mxCell>
        <mxCell id="4wQbj9723WP38MKTBC8T-141" style="edgeStyle=none;rounded=1;sketch=0;orthogonalLoop=1;jettySize=auto;html=1;fontColor=#FFFFFF;strokeColor=#FFFFFF;" edge="1" parent="1" source="4wQbj9723WP38MKTBC8T-142">
          <mxGeometry relative="1" as="geometry">
            <mxPoint x="-90" y="865" as="targetPoint" />
          </mxGeometry>
        </mxCell>
        <mxCell id="4wQbj9723WP38MKTBC8T-142" value="Список переменных" style="rounded=0;whiteSpace=wrap;html=1;sketch=0;fontColor=#1A1A1A;strokeColor=#FFFFFF;fillColor=#EEEEEE;" vertex="1" parent="1">
          <mxGeometry x="-215" y="850" width="90" height="30" as="geometry" />
        </mxCell>
        <mxCell id="4wQbj9723WP38MKTBC8T-152" style="edgeStyle=none;rounded=1;sketch=0;orthogonalLoop=1;jettySize=auto;html=1;entryX=0;entryY=0.5;entryDx=0;entryDy=0;fontColor=#FFFFFF;strokeColor=#FFFFFF;" edge="1" parent="1" source="4wQbj9723WP38MKTBC8T-143" target="4wQbj9723WP38MKTBC8T-138">
          <mxGeometry relative="1" as="geometry" />
        </mxCell>
        <mxCell id="4wQbj9723WP38MKTBC8T-143" value="," style="ellipse;whiteSpace=wrap;html=1;rounded=0;sketch=0;fontColor=#1A1A1A;strokeColor=#FFFFFF;fillColor=#EEEEEE;" vertex="1" parent="1">
          <mxGeometry x="-95" y="855" width="20" height="20" as="geometry" />
        </mxCell>
        <mxCell id="4wQbj9723WP38MKTBC8T-150" style="edgeStyle=none;rounded=1;sketch=0;orthogonalLoop=1;jettySize=auto;html=1;fontColor=#FFFFFF;strokeColor=#FFFFFF;" edge="1" parent="1" source="4wQbj9723WP38MKTBC8T-144">
          <mxGeometry relative="1" as="geometry">
            <mxPoint x="100" y="905" as="targetPoint" />
          </mxGeometry>
        </mxCell>
        <mxCell id="4wQbj9723WP38MKTBC8T-144" value="Переменная" style="rounded=0;whiteSpace=wrap;html=1;sketch=0;fontColor=#1A1A1A;strokeColor=#FFFFFF;fillColor=#EEEEEE;" vertex="1" parent="1">
          <mxGeometry x="-130" y="890" width="90" height="30" as="geometry" />
        </mxCell>
        <mxCell id="4wQbj9723WP38MKTBC8T-149" style="edgeStyle=none;rounded=1;sketch=0;orthogonalLoop=1;jettySize=auto;html=1;entryX=0;entryY=0.5;entryDx=0;entryDy=0;fontColor=#FFFFFF;strokeColor=#FFFFFF;" edge="1" parent="1" target="4wQbj9723WP38MKTBC8T-144">
          <mxGeometry relative="1" as="geometry">
            <mxPoint x="-250" y="905" as="sourcePoint" />
          </mxGeometry>
        </mxCell>
        <mxCell id="4wQbj9723WP38MKTBC8T-153" value="Переменная" style="rounded=0;whiteSpace=wrap;html=1;sketch=0;fontColor=#1A1A1A;strokeColor=#FFFFFF;fillColor=#EEEEEE;" vertex="1" parent="1">
          <mxGeometry x="-360" y="920" width="130" height="30" as="geometry" />
        </mxCell>
        <mxCell id="4wQbj9723WP38MKTBC8T-154" style="edgeStyle=none;rounded=1;sketch=0;orthogonalLoop=1;jettySize=auto;html=1;fontColor=#FFFFFF;strokeColor=#FFFFFF;entryX=0;entryY=0.5;entryDx=0;entryDy=0;" edge="1" parent="1" target="4wQbj9723WP38MKTBC8T-158">
          <mxGeometry relative="1" as="geometry">
            <mxPoint x="-190" y="985" as="targetPoint" />
            <mxPoint x="-230" y="1020" as="sourcePoint" />
            <Array as="points">
              <mxPoint x="-230" y="985" />
            </Array>
          </mxGeometry>
        </mxCell>
        <mxCell id="4wQbj9723WP38MKTBC8T-155" value="Выражение" style="rounded=0;whiteSpace=wrap;html=1;sketch=0;fontColor=#1A1A1A;strokeColor=#FFFFFF;fillColor=#EEEEEE;" vertex="1" parent="1">
          <mxGeometry x="-40" y="970" width="90" height="30" as="geometry" />
        </mxCell>
        <mxCell id="4wQbj9723WP38MKTBC8T-156" style="edgeStyle=orthogonalEdgeStyle;curved=0;rounded=1;sketch=0;orthogonalLoop=1;jettySize=auto;html=1;fontColor=#FFFFFF;strokeColor=#FFFFFF;exitX=1;exitY=0.5;exitDx=0;exitDy=0;" edge="1" parent="1" source="4wQbj9723WP38MKTBC8T-155">
          <mxGeometry relative="1" as="geometry">
            <mxPoint x="80" y="1020" as="targetPoint" />
            <mxPoint x="40" y="990" as="sourcePoint" />
            <Array as="points">
              <mxPoint x="80" y="985" />
            </Array>
          </mxGeometry>
        </mxCell>
        <mxCell id="4wQbj9723WP38MKTBC8T-157" style="edgeStyle=none;rounded=1;sketch=0;orthogonalLoop=1;jettySize=auto;html=1;fontColor=#FFFFFF;strokeColor=#FFFFFF;" edge="1" parent="1" source="4wQbj9723WP38MKTBC8T-158">
          <mxGeometry relative="1" as="geometry">
            <mxPoint x="-90" y="985" as="targetPoint" />
          </mxGeometry>
        </mxCell>
        <mxCell id="4wQbj9723WP38MKTBC8T-158" value="Имя" style="rounded=0;whiteSpace=wrap;html=1;sketch=0;fontColor=#1A1A1A;strokeColor=#FFFFFF;fillColor=#EEEEEE;" vertex="1" parent="1">
          <mxGeometry x="-215" y="970" width="90" height="30" as="geometry" />
        </mxCell>
        <mxCell id="4wQbj9723WP38MKTBC8T-159" style="edgeStyle=none;rounded=1;sketch=0;orthogonalLoop=1;jettySize=auto;html=1;entryX=0;entryY=0.5;entryDx=0;entryDy=0;fontColor=#FFFFFF;strokeColor=#FFFFFF;" edge="1" parent="1" source="4wQbj9723WP38MKTBC8T-160" target="4wQbj9723WP38MKTBC8T-155">
          <mxGeometry relative="1" as="geometry" />
        </mxCell>
        <mxCell id="4wQbj9723WP38MKTBC8T-160" value="=" style="ellipse;whiteSpace=wrap;html=1;rounded=0;sketch=0;fontColor=#1A1A1A;strokeColor=#FFFFFF;fillColor=#EEEEEE;" vertex="1" parent="1">
          <mxGeometry x="-95" y="975" width="20" height="20" as="geometry" />
        </mxCell>
        <mxCell id="4wQbj9723WP38MKTBC8T-161" style="edgeStyle=none;rounded=1;sketch=0;orthogonalLoop=1;jettySize=auto;html=1;fontColor=#FFFFFF;strokeColor=#FFFFFF;" edge="1" parent="1" source="4wQbj9723WP38MKTBC8T-162">
          <mxGeometry relative="1" as="geometry">
            <mxPoint x="100" y="1025" as="targetPoint" />
          </mxGeometry>
        </mxCell>
        <mxCell id="4wQbj9723WP38MKTBC8T-162" value="Имя" style="rounded=0;whiteSpace=wrap;html=1;sketch=0;fontColor=#1A1A1A;strokeColor=#FFFFFF;fillColor=#EEEEEE;" vertex="1" parent="1">
          <mxGeometry x="-130" y="1010" width="90" height="30" as="geometry" />
        </mxCell>
        <mxCell id="4wQbj9723WP38MKTBC8T-163" style="edgeStyle=none;rounded=1;sketch=0;orthogonalLoop=1;jettySize=auto;html=1;entryX=0;entryY=0.5;entryDx=0;entryDy=0;fontColor=#FFFFFF;strokeColor=#FFFFFF;" edge="1" parent="1" target="4wQbj9723WP38MKTBC8T-162">
          <mxGeometry relative="1" as="geometry">
            <mxPoint x="-250" y="1025" as="sourcePoint" />
          </mxGeometry>
        </mxCell>
        <mxCell id="4wQbj9723WP38MKTBC8T-164" value="Имя" style="rounded=0;whiteSpace=wrap;html=1;sketch=0;fontColor=#1A1A1A;strokeColor=#FFFFFF;fillColor=#EEEEEE;" vertex="1" parent="1">
          <mxGeometry x="-370" y="1040" width="130" height="30" as="geometry" />
        </mxCell>
        <mxCell id="4wQbj9723WP38MKTBC8T-165" style="edgeStyle=none;rounded=1;sketch=0;orthogonalLoop=1;jettySize=auto;html=1;fontColor=#FFFFFF;strokeColor=#FFFFFF;entryX=0;entryY=0.5;entryDx=0;entryDy=0;" edge="1" parent="1" target="4wQbj9723WP38MKTBC8T-169">
          <mxGeometry relative="1" as="geometry">
            <mxPoint x="-200" y="1105" as="targetPoint" />
            <mxPoint x="-240" y="1140" as="sourcePoint" />
            <Array as="points">
              <mxPoint x="-240" y="1105" />
            </Array>
          </mxGeometry>
        </mxCell>
        <mxCell id="4wQbj9723WP38MKTBC8T-167" style="edgeStyle=orthogonalEdgeStyle;curved=0;rounded=1;sketch=0;orthogonalLoop=1;jettySize=auto;html=1;fontColor=#FFFFFF;strokeColor=#FFFFFF;exitX=1;exitY=0.5;exitDx=0;exitDy=0;" edge="1" parent="1">
          <mxGeometry relative="1" as="geometry">
            <mxPoint x="70" y="1140" as="targetPoint" />
            <mxPoint x="40" y="1105" as="sourcePoint" />
            <Array as="points">
              <mxPoint x="70" y="1105" />
            </Array>
          </mxGeometry>
        </mxCell>
        <mxCell id="4wQbj9723WP38MKTBC8T-168" style="edgeStyle=none;rounded=1;sketch=0;orthogonalLoop=1;jettySize=auto;html=1;fontColor=#FFFFFF;strokeColor=#FFFFFF;" edge="1" parent="1" source="4wQbj9723WP38MKTBC8T-169">
          <mxGeometry relative="1" as="geometry">
            <mxPoint x="-100" y="1105" as="targetPoint" />
          </mxGeometry>
        </mxCell>
        <mxCell id="4wQbj9723WP38MKTBC8T-169" value="Имя" style="rounded=0;whiteSpace=wrap;html=1;sketch=0;fontColor=#1A1A1A;strokeColor=#FFFFFF;fillColor=#EEEEEE;" vertex="1" parent="1">
          <mxGeometry x="-225" y="1090" width="90" height="30" as="geometry" />
        </mxCell>
        <mxCell id="4wQbj9723WP38MKTBC8T-170" style="edgeStyle=none;rounded=1;sketch=0;orthogonalLoop=1;jettySize=auto;html=1;entryX=0;entryY=0.5;entryDx=0;entryDy=0;fontColor=#FFFFFF;strokeColor=#FFFFFF;" edge="1" parent="1" source="4wQbj9723WP38MKTBC8T-171">
          <mxGeometry relative="1" as="geometry">
            <mxPoint x="-50" y="1105" as="targetPoint" />
          </mxGeometry>
        </mxCell>
        <mxCell id="4wQbj9723WP38MKTBC8T-171" value="." style="ellipse;whiteSpace=wrap;html=1;rounded=0;sketch=0;fontColor=#1A1A1A;strokeColor=#FFFFFF;fillColor=#EEEEEE;" vertex="1" parent="1">
          <mxGeometry x="-105" y="1095" width="20" height="20" as="geometry" />
        </mxCell>
        <mxCell id="4wQbj9723WP38MKTBC8T-173" style="edgeStyle=none;rounded=1;sketch=0;orthogonalLoop=1;jettySize=auto;html=1;entryX=0;entryY=0.5;entryDx=0;entryDy=0;fontColor=#FFFFFF;strokeColor=#FFFFFF;" edge="1" parent="1">
          <mxGeometry relative="1" as="geometry">
            <mxPoint x="-260" y="1145" as="sourcePoint" />
            <mxPoint x="-140" y="1145" as="targetPoint" />
          </mxGeometry>
        </mxCell>
        <mxCell id="4wQbj9723WP38MKTBC8T-174" value="Идентификатор" style="ellipse;whiteSpace=wrap;html=1;rounded=0;sketch=0;fontColor=#1A1A1A;strokeColor=#FFFFFF;fillColor=#EEEEEE;" vertex="1" parent="1">
          <mxGeometry x="-50" y="1085" width="110" height="40" as="geometry" />
        </mxCell>
        <mxCell id="4wQbj9723WP38MKTBC8T-176" style="edgeStyle=none;rounded=1;sketch=0;orthogonalLoop=1;jettySize=auto;html=1;fontColor=#FFFFFF;strokeColor=#FFFFFF;" edge="1" parent="1" source="4wQbj9723WP38MKTBC8T-175">
          <mxGeometry relative="1" as="geometry">
            <mxPoint x="100" y="1145" as="targetPoint" />
          </mxGeometry>
        </mxCell>
        <mxCell id="4wQbj9723WP38MKTBC8T-175" value="Идентификатор" style="ellipse;whiteSpace=wrap;html=1;rounded=0;sketch=0;fontColor=#1A1A1A;strokeColor=#FFFFFF;fillColor=#EEEEEE;" vertex="1" parent="1">
          <mxGeometry x="-140" y="1125" width="110" height="40" as="geometry" />
        </mxCell>
        <mxCell id="4wQbj9723WP38MKTBC8T-178" value="Класс" style="rounded=0;whiteSpace=wrap;html=1;sketch=0;fontColor=#1A1A1A;strokeColor=#FFFFFF;fillColor=#EEEEEE;" vertex="1" parent="1">
          <mxGeometry x="-360" y="1200" width="130" height="30" as="geometry" />
        </mxCell>
        <mxCell id="4wQbj9723WP38MKTBC8T-181" value="" style="edgeStyle=orthogonalEdgeStyle;curved=0;rounded=1;sketch=0;orthogonalLoop=1;jettySize=auto;html=1;fontColor=#FFFFFF;strokeColor=#FFFFFF;endArrow=none;" edge="1" parent="1">
          <mxGeometry relative="1" as="geometry">
            <mxPoint x="-200" y="1284.5" as="targetPoint" />
            <mxPoint x="-220" y="1284.5" as="sourcePoint" />
            <Array as="points" />
          </mxGeometry>
        </mxCell>
        <mxCell id="4wQbj9723WP38MKTBC8T-209" style="edgeStyle=none;rounded=1;sketch=0;orthogonalLoop=1;jettySize=auto;html=1;exitX=1;exitY=0.5;exitDx=0;exitDy=0;entryX=0;entryY=0.5;entryDx=0;entryDy=0;fontColor=#FFFFFF;strokeColor=#FFFFFF;" edge="1" parent="1" source="4wQbj9723WP38MKTBC8T-184" target="4wQbj9723WP38MKTBC8T-206">
          <mxGeometry relative="1" as="geometry" />
        </mxCell>
        <mxCell id="4wQbj9723WP38MKTBC8T-184" value="Программа" style="rounded=0;whiteSpace=wrap;html=1;sketch=0;fontColor=#1A1A1A;strokeColor=#FFFFFF;fillColor=#EEEEEE;" vertex="1" parent="1">
          <mxGeometry x="50" y="1265" width="90" height="30" as="geometry" />
        </mxCell>
        <mxCell id="4wQbj9723WP38MKTBC8T-203" style="edgeStyle=none;rounded=1;sketch=0;orthogonalLoop=1;jettySize=auto;html=1;fontColor=#FFFFFF;strokeColor=#FFFFFF;" edge="1" parent="1" source="4wQbj9723WP38MKTBC8T-188">
          <mxGeometry relative="1" as="geometry">
            <mxPoint x="-130" y="1280" as="targetPoint" />
          </mxGeometry>
        </mxCell>
        <mxCell id="4wQbj9723WP38MKTBC8T-188" value="Class" style="ellipse;whiteSpace=wrap;html=1;rounded=0;sketch=0;fontColor=#1A1A1A;strokeColor=#FFFFFF;fillColor=#EEEEEE;" vertex="1" parent="1">
          <mxGeometry x="-220" y="1265" width="50" height="30" as="geometry" />
        </mxCell>
        <mxCell id="4wQbj9723WP38MKTBC8T-207" style="edgeStyle=none;rounded=1;sketch=0;orthogonalLoop=1;jettySize=auto;html=1;entryX=0;entryY=0.5;entryDx=0;entryDy=0;fontColor=#FFFFFF;strokeColor=#FFFFFF;" edge="1" parent="1" source="4wQbj9723WP38MKTBC8T-200" target="4wQbj9723WP38MKTBC8T-202">
          <mxGeometry relative="1" as="geometry" />
        </mxCell>
        <mxCell id="4wQbj9723WP38MKTBC8T-200" value="Идентификатор" style="ellipse;whiteSpace=wrap;html=1;rounded=0;sketch=0;fontColor=#1A1A1A;strokeColor=#FFFFFF;fillColor=#EEEEEE;" vertex="1" parent="1">
          <mxGeometry x="-127.5" y="1265" width="115" height="30" as="geometry" />
        </mxCell>
        <mxCell id="4wQbj9723WP38MKTBC8T-201" style="edgeStyle=none;rounded=1;sketch=0;orthogonalLoop=1;jettySize=auto;html=1;entryX=1;entryY=0.5;entryDx=0;entryDy=0;fontColor=#FFFFFF;strokeColor=#FFFFFF;" edge="1" parent="1" source="4wQbj9723WP38MKTBC8T-200" target="4wQbj9723WP38MKTBC8T-200">
          <mxGeometry relative="1" as="geometry" />
        </mxCell>
        <mxCell id="4wQbj9723WP38MKTBC8T-208" style="edgeStyle=none;rounded=1;sketch=0;orthogonalLoop=1;jettySize=auto;html=1;exitX=1;exitY=0.5;exitDx=0;exitDy=0;entryX=0;entryY=0.5;entryDx=0;entryDy=0;fontColor=#FFFFFF;strokeColor=#FFFFFF;" edge="1" parent="1" source="4wQbj9723WP38MKTBC8T-202" target="4wQbj9723WP38MKTBC8T-184">
          <mxGeometry relative="1" as="geometry" />
        </mxCell>
        <mxCell id="4wQbj9723WP38MKTBC8T-202" value="{" style="ellipse;whiteSpace=wrap;html=1;rounded=0;sketch=0;fontColor=#1A1A1A;strokeColor=#FFFFFF;fillColor=#EEEEEE;" vertex="1" parent="1">
          <mxGeometry x="10" y="1270" width="20" height="20" as="geometry" />
        </mxCell>
        <mxCell id="4wQbj9723WP38MKTBC8T-205" style="edgeStyle=none;rounded=1;sketch=0;orthogonalLoop=1;jettySize=auto;html=1;entryX=0;entryY=0.5;entryDx=0;entryDy=0;fontColor=#FFFFFF;strokeColor=#FFFFFF;" edge="1" parent="1" target="4wQbj9723WP38MKTBC8T-188">
          <mxGeometry relative="1" as="geometry">
            <mxPoint x="-260" y="1280" as="sourcePoint" />
          </mxGeometry>
        </mxCell>
        <mxCell id="4wQbj9723WP38MKTBC8T-212" style="edgeStyle=none;rounded=1;sketch=0;orthogonalLoop=1;jettySize=auto;html=1;entryX=0;entryY=0.5;entryDx=0;entryDy=0;fontColor=#FFFFFF;strokeColor=#FFFFFF;" edge="1" parent="1" source="4wQbj9723WP38MKTBC8T-206" target="4wQbj9723WP38MKTBC8T-211">
          <mxGeometry relative="1" as="geometry" />
        </mxCell>
        <mxCell id="4wQbj9723WP38MKTBC8T-206" value="}" style="ellipse;whiteSpace=wrap;html=1;rounded=0;sketch=0;fontColor=#1A1A1A;strokeColor=#FFFFFF;fillColor=#EEEEEE;" vertex="1" parent="1">
          <mxGeometry x="160" y="1270" width="20" height="20" as="geometry" />
        </mxCell>
        <mxCell id="4wQbj9723WP38MKTBC8T-213" style="edgeStyle=none;rounded=1;sketch=0;orthogonalLoop=1;jettySize=auto;html=1;fontColor=#FFFFFF;strokeColor=#FFFFFF;" edge="1" parent="1" source="4wQbj9723WP38MKTBC8T-211">
          <mxGeometry relative="1" as="geometry">
            <mxPoint x="260" y="1280" as="targetPoint" />
          </mxGeometry>
        </mxCell>
        <mxCell id="4wQbj9723WP38MKTBC8T-211" value=";" style="ellipse;whiteSpace=wrap;html=1;rounded=0;sketch=0;fontColor=#1A1A1A;strokeColor=#FFFFFF;fillColor=#EEEEEE;" vertex="1" parent="1">
          <mxGeometry x="210" y="1270" width="20" height="20" as="geometry" />
        </mxCell>
      </root>
    </mxGraphModel>
  </diagram>
</mxfile>
